<?xml version="1.0" standalone="no"?><!DOCTYPE svg PUBLIC "-//W3C//DTD SVG 1.1//EN" "http://www.w3.org/Graphics/SVG/1.1/DTD/svg11.dtd"><svg t="1761459055126" class="icon" viewBox="0 0 1024 1024" version="1.1" xmlns="http://www.w3.org/2000/svg" p-id="9458" xmlns:xlink="http://www.w3.org/1999/xlink" width="1024" height="1024"><path d="M553.514667 42.666667c21.76 0 40.106667 15.957333 43.306666 37.333333l2.816 19.797333a424.490667 424.490667 0 0 1 323.157334 321.28l20.138666 2.474667c21.888 2.730667 38.4 21.376 38.4 43.434667v86.528c0 21.717333-15.957333 40.106667-37.376 43.306666l-19.584 2.816a424.234667 424.234667 0 0 1-322.133333 327.978667l-1.92 15.36c-2.730667 21.973333-21.290667 38.357333-43.392 38.357333h-86.442667c-21.632 0-40.106667-15.957333-43.306666-37.333333l-2.133334-14.336a424.064 424.064 0 0 1-330.538666-327.68L81.066667 600.32a43.818667 43.818667 0 0 1-38.4-43.434667v-86.485333c0-21.76 15.957333-40.149333 37.376-43.349333l14.805333-2.005334a424.32 424.32 0 0 1 326.528-325.845333L423.68 81.066667c2.730667-21.973333 21.290667-38.357333 43.392-38.357334h86.442667z m-1.706667 45.653333h-82.56l-6.186667 48.768-1.92 1.92a378.112 378.112 0 0 0-326.442666 324.906667l-1.92 1.962666-43.946667 6.4v82.602667l43.690667 5.418667 1.962666 1.92a378.197333 378.197333 0 0 0 329.6 326.954666l1.962667 1.92 6.485333 44.202667h82.56l5.589334-45.226667 1.962666-1.92a378.026667 378.026667 0 0 0 321.664-327.509333l1.92-1.92 49.194667-7.253333V468.906667l-50.005333-6.229334-1.92-1.92a378.24 378.24 0 0 0-322.56-321.408l-1.962667-1.92-7.168-49.066666z m-39.765333 114.346667a311.04 311.04 0 0 1 311.296 311.466666c0 70.357333-23.466667 137.770667-66.730667 192.725334A310.272 310.272 0 0 1 512 825.6a310.528 310.528 0 0 1-244.906667-119.210667 310.016 310.016 0 0 1-66.389333-192.256 311.296 311.296 0 0 1 311.296-311.466666z m34.986666 231.082666h-57.770666v168.064h35.797333v-58.581333h18.346667c18.986667 0.426667 34.730667-4.522667 47.36-14.933333 12.629333-10.410667 18.901333-24.234667 18.901333-41.386667 0-35.541333-20.821333-53.162667-62.634667-53.162667z m-139.306666 0h-42.026667l-61.525333 167.936h38.826666l12.458667-38.442666h61.013333l12.672 38.4h38.954667l-60.373333-167.893334z m288.64 0.085334h-64.384v27.818666h14.250666v112.213334h-14.250666v27.818666h64.384v-27.818666h-14.506667v-112.213334h14.506667v-27.818666z m-310.058667 28.970666c0.213333 3.242667 0.682667 6.528 1.365333 9.813334l1.28 4.778666 19.114667 58.112v0.256H363.093333l19.2-58.709333c1.109333-3.072 1.834667-6.229333 2.389334-9.386667l0.597333-4.864h1.024z m154.581333-1.365333c20.821333 0 31.189333 8.96 31.189334 26.794667 0 16.810667-8.789333 25.898667-26.496 27.306666l-5.034667 0.170667h-15.488v-54.186667l15.786667-0.085333z" fill="#00A3AF" p-id="9459"></path></svg>