<?xml version="1.0" standalone="no"?><!DOCTYPE svg PUBLIC "-//W3C//DTD SVG 1.1//EN" "http://www.w3.org/Graphics/SVG/1.1/DTD/svg11.dtd"><svg t="1761477896298" class="icon" viewBox="0 0 1024 1024" version="1.1" xmlns="http://www.w3.org/2000/svg" p-id="20352" xmlns:xlink="http://www.w3.org/1999/xlink" width="1024" height="1024"><path d="M786.24237 546.607407c63.525926 0.32237 124.302222 24.196741 168.922074 66.370371 44.430222 44.069926 69.063111 102.343111 68.835556 162.834963C1024 902.33363 917.466074 1005.037037 786.280296 1005.037037c-131.185778 0-237.700741-102.703407-237.70074-229.224296 0-126.501926 106.514963-229.205333 237.662814-229.205334zM477.866667 0c263.926519 0 477.866667 213.674667 477.866666 477.240889 0 29.013333-2.597926 57.457778-7.566222 85.029926a280.007111 280.007111 0 0 0-161.886815-50.934519c-9.841778 0-19.550815 0.493037-29.127111 1.479111v-162.891851h-40.125629v169.908148C599.077926 549.413926 512 652.818963 512 775.831704c0 64.151704 23.703704 122.955852 63.089778 168.77037a479.573333 479.573333 0 0 1-97.223111 9.898667C213.940148 954.500741 0 740.826074 0 477.240889 0 213.655704 213.940148 0 477.866667 0z m236.733629 728.879407a18.375111 18.375111 0 0 0-13.767111 6.371556l-45.89037 51.01037c-3.982222 4.096-6.257778 9.841778-6.257778 15.928889 0 5.271704 1.72563 10.410667 4.854519 14.317037a18.62163 18.62163 0 0 0 14.582518 7.319704h233.642667a18.394074 18.394074 0 0 0 13.710222-5.745778 22.565926 22.565926 0 0 0 6.219852-15.056592V802.133333c0-11.719111-8.248889-21.238519-18.754371-21.63674H715.282963l13.084444-14.582519c3.697778-4.096 5.726815-9.519407 5.726815-15.341037a22.755556 22.755556 0 0 0-5.726815-15.322074 18.356148 18.356148 0 0 0-13.767111-6.371556zM345.732741 349.923556h-46.08l-102.210371 265.02637h43.102815l24.898371-68.28563h114.100148l24.917333 68.28563h43.482074l-102.21037-265.02637z m238.231703 0h-110.004148V614.968889h40.504889v-103.177482h68.759704c63.563852 0 95.516444-27.117037 95.516444-81.294222 0-53.816889-31.592296-80.554667-94.776889-80.554666z m-260.551111 43.425185l43.880297 119.902815h-89.581037l44.221629-119.902815h1.498074z m257.21363-8.912593c19.702519 0 34.190222 3.716741 43.482074 11.150222 9.291852 6.674963 14.127407 18.564741 14.127407 34.891852 0 16.327111-4.835556 28.216889-13.748148 35.631408-9.291852 7.433481-23.798519 11.131259-43.861333 11.131259H514.465185v-92.785778h66.161778z" fill="#ACB3BE" p-id="20353"></path></svg>