<svg t="1705286113996" class="icon" viewBox="0 0 1279 1024" version="1.1" xmlns="http://www.w3.org/2000/svg" p-id="4225" width="128" height="128"><path d="M1249.66274 1024a30.204319 30.204319 0 0 1-29.436412-24.509013c-0.447945-1.919766-20.093551-93.300629-104.051319-183.017695-106.866976-114.354063-272.350807-177.258397-479.749531-182.761726v248.28974c0 11.518596-6.39922 22.077309-16.445995 27.260678a29.628389 29.628389 0 0 1-31.292186-2.431704L12.437527 482.114042a30.716256 30.716256 0 0 1 0-49.465971L588.559312 6.012067a29.628389 29.628389 0 0 1 31.356179-2.559688 30.588272 30.588272 0 0 1 16.445995 27.260678v263.647868c37.115477 1.407828 101.875584 7.039142 176.938436 27.260677 119.473439 32.252069 218.725343 88.565206 294.876062 167.275614 117.297704 121.201229 174.954677 291.100522 171.499098 505.02645a30.332303 30.332303 0 0 1-30.076334 30.076334z" fill="#F85200" p-id="4226"></path></svg>