<svg t="1704769449617" class="icon" viewBox="0 0 1024 1024" version="1.1" xmlns="http://www.w3.org/2000/svg" p-id="28170" width="128" height="128"><path d="M512 512m-512 0a512 512 0 1 0 1024 0 512 512 0 1 0-1024 0Z" fill="#22AC38" p-id="28171"></path><path d="M752 425.6c-16 0-28.8 3.2-41.6 12.8-9.6-28.8-35.2-51.2-70.4-51.2-16 0-28.8 3.2-41.6 12.8-9.6-28.8-35.2-51.2-70.4-51.2-12.8 0-25.6 3.2-35.2 9.6V278.4c0-41.6-32-76.8-73.6-76.8-41.6 0-76.8 35.2-76.8 76.8v294.4l-48-48c-28.8-28.8-83.2-25.6-108.8 0-25.6 25.6-41.6 76.8-6.4 112l214.4 214.4c3.2 3.2 9.6 9.6 12.8 9.6 38.4 32 83.2 51.2 179.2 51.2 217.6 0 236.8-115.2 236.8-259.2v-153.6c3.2-38.4-28.8-73.6-70.4-73.6z m32 230.4c0 121.6 0 220.8-195.2 220.8-83.2 0-131.2-19.2-169.6-54.4l-201.6-201.6c-19.2-19.2-12.8-41.6 0-54.4 16-16 41.6-16 54.4 0l67.2 67.2c22.4 16 44.8 38.4 44.8 38.4V288c0-19.2 16-35.2 35.2-35.2 19.2 0 35.2 16 35.2 35.2V534.4c0 9.6 9.6 19.2 19.2 19.2s19.2-9.6 19.2-19.2v-102.4c0-19.2 16-35.2 35.2-35.2 0 0 35.2 0 35.2 35.2V566.4c0 9.6 9.6 19.2 19.2 19.2s19.2-9.6 19.2-19.2v-96c0-19.2 12.8-35.2 35.2-35.2 0 0 35.2 3.2 35.2 35.2v118.4c0 9.6 9.6 19.2 19.2 19.2s19.2-9.6 19.2-19.2v-83.2c0-19.2 16-35.2 35.2-35.2 0 0 35.2 0 35.2 35.2v150.4zM313.6 390.4v-67.2c-6.4-12.8-9.6-28.8-9.6-44.8 0-64 51.2-115.2 115.2-115.2s115.2 51.2 115.2 115.2c0 9.6 0 16-3.2 25.6 16 0 28.8 6.4 38.4 16 3.2-12.8 6.4-28.8 6.4-41.6 0-86.4-70.4-156.8-156.8-156.8S262.4 192 262.4 278.4c0 44.8 19.2 86.4 51.2 112z m0 0" fill="#FFFFFF" p-id="28172"></path></svg>