<svg t="1705286199424" class="icon" viewBox="0 0 1024 1024" version="1.1" xmlns="http://www.w3.org/2000/svg" p-id="6232" width="128" height="128"><path d="M157.330286 64h405.357714L722.285714 232.96v503.003429c0 53.028571-46.884571 96.036571-98.450285 96.036571H157.257143C105.837714 832 64 788.992 64 735.963429V160.109714C64 107.008 105.764571 64 157.330286 64z m372.955428 54.857143v114.761143c0 12.361143 10.020571 22.381714 22.381715 22.381714H667.428571L530.285714 118.857143z m91.428572 658.285714a46.372571 46.372571 0 0 0 45.714285-47.030857V306.907429H530.285714a46.372571 46.372571 0 0 1-45.714285-46.957715V118.857143H164.571429a46.372571 46.372571 0 0 0-45.714286 47.030857v564.224c0 25.965714 20.48 47.030857 45.714286 47.030857h457.142857z" fill="#4C7E9E" p-id="6233"></path><path d="M228.571429 393.142857m36.571428 0l201.142857 0q36.571429 0 36.571429 36.571429l0 0q0 36.571429-36.571429 36.571428l-201.142857 0q-36.571429 0-36.571428-36.571428l0 0q0-36.571429 36.571428-36.571429Z" fill="#4C7E9E" p-id="6234"></path><path d="M228.571429 557.714286m36.571428 0l256 0q36.571429 0 36.571429 36.571428l0 0q0 36.571429-36.571429 36.571429l-256 0q-36.571429 0-36.571428-36.571429l0 0q0-36.571429 36.571428-36.571428Z" fill="#4C7E9E" p-id="6235"></path><path d="M731.428571 731.428571m-292.571428 0a292.571429 292.571429 0 1 0 585.142857 0 292.571429 292.571429 0 1 0-585.142857 0Z" fill="#4C7E9E" p-id="6236"></path><path d="M604.226769 830.50846m25.859905-25.859906l174.554359-174.554359q25.859905-25.859905 51.719811 0l0 0q25.859905 25.859905 0 51.71981l-174.55436 174.55436q-25.859905 25.859905-51.71981 0l0 0q-25.859905-25.859905 0-51.719811Z" fill="#FFFFFF" p-id="6237"></path><path d="M604.226769 631.38719m25.859905-25.859905l0 0q25.859905-25.859905 51.71981 0l174.55436 174.55436q25.859905 25.859905 0 51.71981l0 0q-25.859905 25.859905-51.719811 0l-174.554359-174.55436q-25.859905-25.859905 0-51.71981Z" fill="#FFFFFF" p-id="6238"></path></svg>