<svg t="1705734332473" class="icon" viewBox="0 0 1024 1024" version="1.1" xmlns="http://www.w3.org/2000/svg" p-id="10266" width="128" height="128"><path d="M791.893333 583.68h34.133334v34.133333h-34.133334zM232.106667 389.12l221.866666 177.493333 218.453334-177.493333-218.453334-177.493333z" fill="#3A87FB" p-id="10267"></path><path d="M512 0C228.693333 0 0 228.693333 0 512s228.693333 512 512 512 512-228.693333 512-512S795.306667 0 512 0z m348.16 651.946667h-102.4v-102.4h34.133333v-143.36h-85.333333L477.866667 587.093333V682.666667h68.266666v170.666666h-170.666666v-170.666666h68.266666v-81.92l-266.24-211.626667 273.066667-218.453333 252.586667 201.386666h119.466666v177.493334h34.133334v102.4z" fill="#3A87FB" p-id="10268"></path></svg>