<svg t="1704771312710" class="icon" viewBox="0 0 1024 1024" version="1.1" xmlns="http://www.w3.org/2000/svg" p-id="16826" width="128" height="128"><path d="M512 0C229.402597 0 0 229.402597 0 512s229.402597 512 512 512 512-229.402597 512-512S794.597403 0 512 0z m-109.311688 607.246753q-4.493506 4.12987-13.376624 4.12987H287.012987q-12.298701 0-17.688312-5.454545T263.883117 588.311688V448.532468a31.519481 31.519481 0 0 1 2.350649-13.259741 15.064935 15.064935 0 0 1 7.545455-7.480519 31.844156 31.844156 0 0 1 13.233766-2.35065h99.428571q9.012987 0 13.389611 4a13.532468 13.532468 0 0 1 4.376623 10.467533 13.675325 13.675325 0 0 1-4.376623 10.584415q-4.428571 4.051948-13.441559 4.051949h-84.844155v45.64935h78.12987q8.623377 0 12.87013 3.896104a13.168831 13.168831 0 0 1 4.246753 10.207792 13.636364 13.636364 0 0 1-4.181818 10.389611q-4.181818 3.987013-12.987013 4h-78.077922v52.883117h87.766233q8.883117 0 13.376624 4.12987a14.142857 14.142857 0 0 1 4.506493 10.961039 13.844156 13.844156 0 0 1-4.506493 10.584415z m190.558441-17.181818q0 24.493506-20.285714 24.48052a27.090909 27.090909 0 0 1-9.090909-1.454546 23.051948 23.051948 0 0 1-7.61039-4.636364 44.155844 44.155844 0 0 1-6.597402-7.415584c-2.025974-2.831169-4.064935-5.727273-6.090909-8.688312l-70.636364-108.311688v108.948052q0 10.649351-4.948052 16.103896a16.363636 16.363636 0 0 1-12.688312 5.454546 16.168831 16.168831 0 0 1-12.805195-5.519481Q437.662338 603.519481 437.662338 592.987013V449.545455q0-9.090909 2.025974-14.285715a20.454545 20.454545 0 0 1 7.987013-9.311688 21.74026 21.74026 0 0 1 12.051948-3.623377 19.714286 19.714286 0 0 1 15.025974 6.090909 46.038961 46.038961 0 0 1 5.584415 7.233767c1.896104 2.961039 3.896104 6.038961 5.896104 9.25974l72.415585 109.571428v-110.64935q0-10.766234 4.636363-16.168831a15.584416 15.584416 0 0 1 12.493507-5.389611 16.142857 16.142857 0 0 1 12.805195 5.389611q4.701299 5.38961 4.688311 16.168831z m197.467533-41.558441a90.558442 90.558442 0 0 1-9 24.922077 77.519481 77.519481 0 0 1-15.584416 19.844156 64.012987 64.012987 0 0 1-16.363636 10.779221 74.025974 74.025974 0 0 1-19.090909 5.714286 144.714286 144.714286 0 0 1-23.012987 1.64935h-49.090909q-10.25974 0-15.467533-3.103896a14.428571 14.428571 0 0 1-6.779221-8.753246 55.324675 55.324675 0 0 1-1.584415-14.649351v-136.363636q0-12.168831 5.441558-17.636364c3.636364-3.623377 9.519481-5.454545 17.636364-5.454546h49.064935a132.467532 132.467532 0 0 1 32.844156 3.558442 60.363636 60.363636 0 0 1 24.87013 13.311688q29.025974 24.857143 29.038961 75.597403a147.974026 147.974026 0 0 1-2.922078 30.545454z" fill="#d81e06" p-id="16827"></path><path d="M726.675325 458.987013a101.571429 101.571429 0 0 0-29.428572-3.74026h-24.857143v126.194805h28.571429q9.38961 0 14.714286-0.506493a46.142857 46.142857 0 0 0 11.038961-2.532468 29.87013 29.87013 0 0 0 9.883117-5.714285q18.896104-15.974026 18.896103-55.038961 0-27.519481-8.298701-41.22078t-20.51948-17.441558z" fill="#d81e06" p-id="16828"></path></svg>