<svg t="1705739746838" class="icon" viewBox="0 0 1024 1024" version="1.1" xmlns="http://www.w3.org/2000/svg" p-id="14012" width="128" height="128"><path d="M567.808 348.16c17.408 15.872 26.112 37.376 26.112 65.024 0 20.48-6.144 38.4-17.408 54.272-5.632 6.144-17.408 17.92-37.376 35.84-9.728 8.704-16.896 16.896-21.504 25.6-6.144 9.728-9.216 20.992-9.216 33.792v10.752h-37.376v-10.752c0-15.872 3.072-29.184 8.704-40.448 6.656-13.824 22.528-32.256 47.104-53.76 8.704-8.704 13.824-14.336 15.872-16.896 9.216-11.264 13.824-24.064 13.824-36.864 0-17.92-5.632-32.768-15.872-43.52-10.24-10.752-26.112-16.384-45.056-16.384-23.04 0-40.448 7.68-51.2 23.04-10.24 13.312-14.848 30.72-14.848 53.248h-36.864c0-32.768 9.216-58.368 27.136-77.824 18.944-20.48 44.544-30.72 77.824-30.72 28.672 1.024 52.224 9.728 70.144 25.6z m-58.368 266.24c5.632 5.632 7.68 11.264 7.68 19.456 0 7.68-3.072 14.336-8.704 19.968-6.144 5.632-12.8 7.68-19.968 7.68s-13.824-2.56-19.968-7.68c-5.632-5.632-7.68-12.288-7.68-19.968s2.56-14.336 7.68-19.456c5.632-5.632 12.288-7.68 19.968-7.68 8.704 0 15.872 2.56 20.992 7.68z" fill="#1AAB5E" p-id="14013"></path><path d="M506.368 0l-436.224 258.048v411.648l1.024 92.672L517.12 1024l435.2-257.024v-506.88l-445.952-260.096z m407.552 744.448l-397.312 235.008-407.552-239.104-1.024-84.48v-375.808l398.336-235.52 407.04 237.056v462.848z" fill="#1AAB5E" p-id="14014"></path><path d="M492.544 788.992h36.864V988.16h-36.864zM247.9104 390.0672l-26.07104 26.0608-140.83072-140.8256 26.06592-26.06592zM914.75968 249.62048l26.06592 26.06592-140.83072 140.83072-26.06592-26.06592z" fill="#1AAB5E" p-id="14015"></path></svg>