<svg t="1704790899201" class="icon" viewBox="0 0 1024 1024" version="1.1" xmlns="http://www.w3.org/2000/svg" p-id="23852" width="128" height="128"><path d="M512 0C229.451852 0 0 229.451852 0 512s229.451852 512 512 512 512-229.451852 512-512S794.548148 0 512 0z m235.77284 690.883951c0 44.246914-36.02963 79.644444-80.908642 79.644444H343.22963c-44.879012 0-80.908642-35.397531-80.908642-79.644444V332.483951c0-44.246914 36.02963-79.644444 80.908642-79.644445h202.271605v39.822222H340.701235c-22.123457 0-40.454321 17.698765-40.454321 39.822223v358.4c0 22.123457 18.330864 39.822222 40.454321 39.822222h328.691358c22.123457 0 40.454321-17.698765 40.454321-39.822222V611.239506h37.925926v79.644445z m8.849382-206.064198c-3.792593 3.160494-9.481481 3.160494-13.274074 0.632099l-61.31358-37.293827c-68.898765 126.419753-164.977778 208.592593-308.464198 81.54074v-13.906172c96.079012 50.567901 160.553086 7.585185 228.819753-116.306173l-60.049382-36.661729c-4.424691-2.528395-6.953086-7.585185-6.320988-12.641975 0-1.896296 0.632099-3.160494 1.264198-4.424691 1.264198-2.528395 4.424691-5.05679 7.585185-5.688889l171.930864-69.530864c6.320988-1.896296 13.274074 2.528395 15.17037 9.481481l29.708642 192.158025c0.632099 4.424691-1.264198 9.481481-5.05679 12.641975z" fill="#1296db" p-id="23853"></path></svg>