<svg t="1705286452674" class="icon" viewBox="0 0 1024 1024" version="1.1" xmlns="http://www.w3.org/2000/svg" p-id="30376" width="128" height="128"><path d="M500.5 175.5c-146.6 0-265.9 119.3-265.9 265.9 0 120 82 225.9 196.7 256.8l-2.5-65.2s-98.5-67.1-117-103.7-7.5-163.6 16-195.6 68.5-79.5 126-90.5 118 0 168 34.5 72.5 134.5 72.5 134.5S736 410 765.8 425c-8.5-139.1-124.2-249.5-265.3-249.5z" fill="#E6E6E6" p-id="30377"></path><path d="M667.3 349c-33.6-60.6-97.5-98.3-166.8-98.3-105.1 0-190.6 85.5-190.6 190.6 0 84 53.8 157.1 133.9 182 1.3 0.4 2.4 1 3.3 1.8l222.6-273.3c-1-0.7-1.8-1.6-2.4-2.8z" fill="#FFFFFF" p-id="30378"></path><path d="M684.8 339.3c-37.2-67-107.8-108.6-184.3-108.6-116.1 0-210.6 94.5-210.6 210.6 0 45.8 14.5 89.4 41.8 126 26.5 35.4 64.2 62.1 106.1 75.1 1 0.3 2 0.5 3 0.5 4.3 0 8.2-2.7 9.5-7 1.2-4-0.2-8.2-3.2-10.7-1-0.8-2.1-1.4-3.3-1.8-80.1-24.9-133.9-98.1-133.9-182 0-105.1 85.5-190.6 190.6-190.6 69.2 0 133.1 37.7 166.8 98.3 0.6 1.1 1.5 2.1 2.4 2.9 3.1 2.5 7.5 3 11.2 1 4.8-2.8 6.5-8.8 3.9-13.7z" fill="#06F3FF" p-id="30379"></path><path d="M500.5 441.4m-59.5 0a59.5 59.5 0 1 0 119 0 59.5 59.5 0 1 0-119 0Z" fill="#005BFF" p-id="30380"></path><path d="M329.9 793.1c-1.5 0-3-0.3-4.5-1.1-68.7-34.3-125.4-87.6-164-154.1-2.8-4.8-1.2-10.9 3.6-13.7 4.8-2.8 10.9-1.2 13.7 3.6 36.6 63.1 90.5 113.6 155.6 146.2 4.9 2.5 6.9 8.5 4.5 13.4-1.7 3.7-5.3 5.7-8.9 5.7z" fill="#005BFF" p-id="30381"></path><path d="M801.5 496c-0.5 0-0.9-0.1-1.4-0.1-0.7 0-1.4 0-2 0.1-0.2 0-0.5 0.1-0.7 0.1-0.4 0.1-0.8 0.1-1.2 0.2-0.3 0.1-0.6 0.2-0.9 0.2-0.3 0.1-0.7 0.2-1 0.3-0.3 0.1-0.7 0.2-1 0.4-0.3 0.1-0.5 0.2-0.8 0.3-0.4 0.2-0.7 0.3-1.1 0.5l-0.6 0.3c-0.4 0.2-0.8 0.5-1.2 0.7-0.1 0.1-0.3 0.2-0.4 0.3l-1.2 0.9c-0.1 0.1-0.2 0.1-0.3 0.2-0.4 0.3-0.8 0.7-1.2 1.1-0.1 0-0.1 0.1-0.2 0.1-0.4 0.4-0.8 0.8-1.2 1.3l-0.1 0.1c-3 3.5-4.8 8-4.8 12.9V608h-40l-0.5-156.4c0-11-8.9-20-19.9-20s-19.9 8.9-19.9 19.9V566h-40V373.3c0-11-8.9-19.9-19.9-19.9-11 0-19.9 8.9-19.9 19.9v144.4l-40 0.1-0.1-22.5V323.2c0-11-8.9-19.9-19.9-19.9-6.9 0-13.2 3.5-16.9 9.3-2 3.2-3 6.8-3 10.6v315.5h-40V491.6c0-11-8.9-19.9-19.9-19.9-11 0-19.9 8.9-19.9 19.9v273.9c0 40.4 32.8 73.2 73.2 73.2h213.3c40.4 0 73.2-32.8 73.2-73.2V515.8c-0.2-10.5-8.3-19.1-18.6-19.8z" fill="#FFFFFF" p-id="30382"></path><path d="M460.3 721c0 0.1 0 0 0 0z" fill="#005BFF" p-id="30383"></path><path d="M806 456.2c0.2-4.9 0.4-9.9 0.4-14.9 0-81.7-31.8-158.5-89.6-216.3s-134.6-89.6-216.3-89.6c-81.7 0-158.5 31.8-216.3 89.6s-89.6 134.6-89.6 216.3c0 35.9 6.2 71.1 18.3 104.5 11.8 32.3 28.8 62.3 50.7 89 40.4 49.4 95.6 85.1 156.7 101.7v28.9c0 62.4 50.8 113.2 113.2 113.2h213.3c62.4 0 113.2-50.8 113.2-113.2V515.8c-0.1-31-23.8-56.6-54-59.6zM420.3 694.9c-108.9-34.5-185.7-137.4-185.7-253.5 0-146.6 119.3-265.9 265.9-265.9 136.7 0 249.7 103.8 264.3 236.7-11-12.5-27.1-20.5-45-20.5-7 0-13.7 1.2-19.9 3.4v-21.8c0-33-26.9-59.9-59.9-59.9-7.1 0-14 1.3-20.4 3.6-3.1-30.1-28.7-53.6-59.6-53.6-20.7 0-39.6 10.5-50.7 28-0.2 0.3-0.4 0.6-0.5 0.9-2.7-0.1-5.5-0.2-8.2-0.2-82.4 0-149.4 67-149.4 149.4 0 25.9 6.8 51.5 19.5 73.9 12 21.1 29.2 39.1 49.7 52.1v127.4z m0-203.3V543c-31.1-24.4-49.2-61.4-49.2-101.6 0-71.4 58.1-129.4 129.4-129.4h0.7c-0.7 3.7-1.1 7.4-1.1 11.2v111.9c-6.2-2.2-12.9-3.4-19.9-3.4-33 0-59.9 26.9-59.9 59.9z m399.6 273.9c0 40.4-32.8 73.2-73.2 73.2H533.5c-40.4 0-73.2-32.8-73.2-73.2V491.6c0-11 8.9-19.9 19.9-19.9 11 0 19.9 8.9 19.9 19.9v147.1h40V323.2c0-3.8 1.1-7.4 3-10.6 3.7-5.8 10-9.3 16.9-9.3 11 0 19.9 8.9 19.9 19.9v172.1l0.1 22.5 40-0.1V373.3c0-11 8.9-19.9 19.9-19.9 11 0 19.9 8.9 19.9 19.9V566h40V451.6c0-11 8.9-19.9 19.9-19.9s19.9 8.9 19.9 20l0.5 156.4h40v-92.2-0.6c0.3-10.7 9.1-19.3 19.9-19.3 0.5 0 1 0 1.4 0.1 10.3 0.7 18.5 9.3 18.5 19.8v249.6z" fill="#005BFF" p-id="30384"></path><path d="M601.4 774.1h30.5v38h-30.5zM650.9 774.1h30.5v38h-30.5zM715.6 774.1h30.5v38h-30.5z" fill="#005BFF" p-id="30385"></path></svg>