<svg t="1704769840211" class="icon" viewBox="0 0 1024 1024" version="1.1" xmlns="http://www.w3.org/2000/svg" p-id="37822" width="128" height="128"><path d="M512.004093 66.022693c-246.39883 0-446.144106 199.745277-446.144106 446.134897 0 246.39576 199.745277 446.141036 446.144106 446.141036s446.134897-199.745277 446.134897-446.141036C958.13899 265.768993 758.402923 66.022693 512.004093 66.022693zM551.148625 743.039004 504.19729 743.039004l0-46.957475 46.951335 0L551.148625 743.039004zM646.538159 743.039004l-46.954405 0 0-46.957475 46.954405 0L646.538159 743.039004zM551.746236 570.236356l-42.00058 42.723034c-13.997805 13.709233-26.601868 26.282596-37.796838 37.70781-11.19497 11.425214-20.472264 20.832468-27.817556 28.214599-7.357572 7.385201-11.730159 11.604292-13.126972 12.659321-3.507894 3.166109-7.526417 6.505158-12.081153 10.016121-4.538363 3.520173-9.261944 6.333242-14.170744 8.443299-4.904707 2.462075-12.081153 5.450129-21.525246 8.964162-9.447163 3.517103-19.331277 6.942109-29.6636 10.287297-10.321066 3.342118-20.1182 6.240121-29.396517 8.699126-9.277294 2.462075-16.185634 4.046153-20.7373 4.745071-9.447163 1.055029-15.748682-0.350994-18.894326-4.216022-3.1569-3.868097-4.030803-10.370185-2.63399-19.515473 0.701988-4.920056 2.365884-12.038174 4.988618-21.358447 2.63706-9.317203 5.428639-18.986423 8.403391-29.008684 2.975774-10.016121 5.865591-19.250436 8.656147-27.688619 2.805906-8.43716 5.077645-14.238282 6.825452-17.401322 2.098801-4.923126 4.467755-9.407254 7.089465-13.450337 2.62171-4.043083 6.388501-8.527211 11.293207-13.447267 2.098801-2.111081 6.994298-7.123234 14.690584-15.032368 7.699356-7.91118 17.327644-17.669428 28.873608-29.27372l38.332027-38.495756 42.523489-42.719964 112.870674-113.393583 98.16781 99.152231L551.746236 570.236356zM742.303246 743.039004l-46.954405 0 0-46.957475 46.954405 0L742.303246 743.039004zM740.213655 377.208061c-1.760087 4.573155-4.567016 8.967232-8.403391 13.1853-4.200672 4.222161-7.963369 7.91118-11.290137 11.072173-3.326768 3.166109-6.206352 5.982248-8.659217 8.443299-2.790556 2.812045-5.424546 5.27105-7.880481 7.382131l-98.16781-98.620112c4.203742-3.871167 9.191336-8.53028 14.960737-13.979386 5.77861-5.453199 10.585079-9.754155 14.434757-12.921287 4.904707-3.868097 9.982352-6.591115 15.225773-8.173147 5.258771-1.585101 10.419304-2.289136 15.493879-2.111081 5.077645 0.174985 9.970072 0.969071 14.705933 2.372024 4.723581 1.406023 8.824993 2.988054 12.323677 4.751211 7.357572 3.868097 15.493879 10.635221 24.417109 20.300348 8.924253 9.668197 15.83157 19.780509 20.7373 30.325679 1.409093 3.166109 2.551102 6.856152 3.412726 11.075243 0.873903 4.222161 1.310855 8.616238 1.310855 13.18837C742.835366 368.068913 741.961462 372.638999 740.213655 377.208061z" fill="#FF5000" p-id="37823"></path></svg>