<svg t="1737248033979" class="icon" viewBox="0 0 1024 1024" version="1.1" xmlns="http://www.w3.org/2000/svg" p-id="4451" width="1024" height="1024"><path d="M514.6 73C269 73 69.9 272.1 69.9 517.7S269 962.4 514.6 962.4s444.7-199.1 444.7-444.7S760.2 73 514.6 73z m38.5 285h100.5v100.5H553.1V358z m0 126.3h100.5v100.5H553.1V484.3zM387 358h100.5v100.5H387V358z m0 126.3h100.5v100.5H387V484.3zM225.3 358h100.5v100.5H225.3V358z m0 126.3h100.5v100.5H225.3V484.3z m496.5 248.1H307.4v-71h414.4v71zM804 584.8H703.5V484.3H804v100.5z m0-126.4H703.5V358H804v100.4z" fill="#42A9DF" p-id="4452"></path></svg>