<svg t="1704766661408" class="icon" viewBox="0 0 1024 1024" version="1.1" xmlns="http://www.w3.org/2000/svg" p-id="10285" width="128" height="128"><path d="M512 0a512 512 0 1 0 512 512 513.536 513.536 0 0 0-512-512zM192 556.8a327.872 327.872 0 0 1 172.8-329.6 320.448 320.448 0 0 1 428.8 131.2H528V272a295.616 295.616 0 0 0-128 25.6 241.024 241.024 0 0 0-128 246.4c0 22.4-41.6 57.6-80 12.8z m467.2 240a320.448 320.448 0 0 1-428.8-131.2h265.6v83.2a230.976 230.976 0 0 0 131.2-25.6 244.544 244.544 0 0 0 128-240c-9.6-76.8 73.6-60.8 76.8-19.2a337.408 337.408 0 0 1-172.8 332.8z" fill="#0DB496" p-id="10286"></path></svg>