<svg t="1749896890716" class="icon" viewBox="0 0 1283 1024" version="1.1" xmlns="http://www.w3.org/2000/svg" p-id="5407" width="1024" height="1024"><path d="M734.166981 216.375222L537.874065 412.682457 394.305873 269.114266l36.271517-36.328796c81.564375-81.507096 211.901267-86.547591 303.589591-16.410248z m72.485756 72.256642L610.216625 485.025017l144.627841 144.69944 36.271517-36.271517c82.022602-81.936684 86.705107-213.17571 15.536754-304.821076z" fill="#A6BAFB" p-id="5408"></path><path d="M1267.786438 336.373372c-19.961506-19.961506-51.994425-20.419733-71.411787-1.002372l-18.400671 18.400671c-26.648754 26.648754-70.624209 26.033011-98.031901-1.431958s-28.023434-71.383147-1.431959-98.031902l24.185784-24.185784c51.550518-51.550518 50.333353-136.580233-2.663443-189.577029s-138.05515-54.199642-189.577029-2.663444l-113.224984 113.282263c-128.246232-105.091458-315.78988-100.351675-432.222452 16.080898L91.332025 440.963644C-32.904723 565.157433-30.040805 770.285535 97.76152 898.016262L126.042707 926.26881c127.745047 127.745047 332.858829 130.623284 457.052618 6.429495L856.756976 659.022334c117.420624-117.420624 121.186675-307.327003 13.131063-435.644833l113.038829-113.03883c13.532011-13.532011 35.054352-13.2313 48.972992 0.68734s14.233671 35.440981 0.70166 48.987312l-24.185785 24.185784c-64.867735 64.867735-63.364178 171.906657 3.350784 238.621619s173.768204 68.218518 238.635938 3.350784L1268.74585 407.785158c19.46032-19.417362 19.016413-51.450281-0.959412-71.411786z m-837.209048-103.587902c81.621653-81.621653 211.929906-86.60487 303.575271-16.467526L537.874065 412.682457 394.305873 269.114266z m86.934221 634.35776c-89.02488 89.02488-236.187289 86.96286-327.746737-4.610907l-28.266867-28.324146c-91.573767-91.573767-93.635788-238.721856-4.610907-327.746736l173.667966-173.596368 164.231358 164.231357A53.240229 53.240229 0 0 0 525.559219 527.912184l165.606038 165.56308zM791.187581 593.45294l-36.271517 36.271517-144.627841-144.69944L806.652737 288.631864c71.168354 91.645365 66.485848 222.884391-15.465156 304.821076z" fill="" p-id="5409"></path></svg>