<svg t="1705458615436" class="icon" viewBox="0 0 1024 1024" version="1.1" xmlns="http://www.w3.org/2000/svg" p-id="11240" width="128" height="128"><path d="M512 0a512 512 0 1 0 0 1024A512 512 0 0 0 512 0zM378.368 613.568c-0.96 16.384-9.6 24.64-25.984 24.64a27.136 27.136 0 0 1-21.888-9.6L219.52 482.048h-1.28v131.52c-0.896 16.384-9.664 24.64-26.112 24.64-16.384 0-25.152-8.32-25.984-24.64V413.44c0.832-17.408 9.6-26.56 25.984-27.392a30.144 30.144 0 0 1 22.016 12.352l110.912 147.84h1.28V413.44c0.896-17.408 9.664-26.56 26.112-27.392 16.512 0.832 25.152 10.112 25.984 27.392v200.128z m146.56 24.512H434.56c-16.512-0.832-25.152-9.6-25.984-26.048V418.88c0-20.16 8.64-30.08 25.984-30.08H522.24c15.552 0.832 23.68 8.576 24.704 23.296-0.896 15.488-9.152 23.808-24.704 24.64h-61.696v50.688h57.472c15.552 0.896 24.192 9.152 26.048 24.704-1.856 15.552-10.496 23.808-26.048 24.64h-57.472v53.44h64.384c15.552 0 23.68 7.808 24.704 23.36-0.896 15.36-9.152 23.68-24.704 24.512z m342.656-216.512l-43.84 192c-5.44 16.384-16.896 24.64-34.304 24.64-18.24 0-30.08-7.744-35.648-23.296l-41.088-135.68-41.024 135.68c-5.568 15.552-16.96 23.296-34.304 23.296-18.304 0-29.76-8.32-34.304-24.64l-45.184-191.872a47.232 47.232 0 0 1-1.344-12.352c1.856-14.72 9.984-22.4 24.64-23.296 15.552-0.896 25.216 7.744 28.8 26.048l28.736 148.032H640l45.184-153.472c5.504-12.8 14.656-19.648 27.328-20.608 13.696 0 22.848 6.784 27.392 20.608l45.184 153.472h1.344l30.08-148.032c2.752-17.408 11.904-26.048 27.392-26.048 14.72 0.832 22.848 8.64 24.704 23.296a35.008 35.008 0 0 1-1.088 12.224z" fill="#3695EB" p-id="11241"></path></svg>