<svg t="1705286259069" class="icon" viewBox="0 0 1024 1024" version="1.1" xmlns="http://www.w3.org/2000/svg" p-id="8132" width="128" height="128"><path d="M591.36523438 742.9765625h121.81640624v84.11132813L933.875 700.26171875l-220.69335938-127.88085938v85.42968751h-121.81640624v85.16601562z" fill="#0F9FBC" p-id="8133"></path><path d="M277.859375 151.82421875a13.18359375 13.18359375 0 0 1 12.12890625-12.39257813h356.22070313a42.45117188 42.45117188 0 0 1 12.12890624 1e-8v190.37109374h189.05273438V601.6484375l47.72460938 29.26757813V362.76171875A229.921875 229.921875 0 0 0 854.7734375 242l-105.46875-105.46875a164.79492188 164.79492188 0 0 0-102.04101563-42.1875H289.98828125a59.85351563 59.85351563 0 0 0-59.58984375 59.85351563V274.6953125h47.4609375z" fill="#4563D7" p-id="8134"></path><path d="M705.79882813 161.58007812a63.01757813 63.01757813 0 0 1 8.70117187 7.11914063l105.46875 105.46875a62.2265625 62.2265625 0 0 1 7.3828125 8.4375h-121.55273438z" fill="#FFFFFF" p-id="8135"></path><path d="M591.36523438 390.7109375h195.11718749v56.16210938h-195.11718749zM848.4453125 869.80273438a12.91992188 12.91992188 0 0 1-12.12890625 12.12890624H289.98828125a12.91992188 12.91992188 0 0 1-12.12890625-12.12890625v-40.078125h-47.4609375v40.078125a59.85351563 59.85351563 0 0 0 59.58984375 59.85351563h547.64648438a59.85351563 59.85351563 0 0 0 59.58984375-59.85351563v-99.93164062l-47.4609375 27.94921875v71.98242188zM90.125 328.484375h446.1328125v446.1328125H90.125zM591.36523438 501.71679687h195.11718749v56.16210938h-195.11718749z" fill="#4563D7" p-id="8136"></path><path d="M436.58984375 706.0625c-13.7109375 0-26.3671875-9.75585938-42.71484375-31.11328125l-17.40234375-29.26757813c-3.95507813-9.4921875-9.75585938-17.40234375-13.7109375-29.00390624a509.67773438 509.67773438 0 0 0-77.78320313-26.36718751 331.69921875 331.69921875 0 0 1-42.45117187 26.36718751 108.36914063 108.36914063 0 0 1-48.77929687 13.44726562 39.55078125 39.55078125 0 0 1-13.44726563-1.84570313c-3.95507813-1.84570313-7.91015625-1.84570313-11.6015625-5.80078124s-5.80078125-5.80078125-7.91015625-7.64648438a16.34765625 16.34765625 0 0 1-3.69140625-9.75585938 50.09765625 50.09765625 0 0 1-2.109375-17.66601562c2.109375-3.69140625 2.109375-7.64648438 5.80078125-9.4921875a31.90429688 31.90429688 0 0 1 7.91015625-7.91015625l11.6015625-5.2734375c3.95507813-1.84570313 9.75585938-1.84570313 13.44726563-3.95507813a56.68945313 56.68945313 0 0 1 17.66601562 0 407.109375 407.109375 0 0 1 73.56445313 9.75585938 369.140625 369.140625 0 0 0 52.734375-42.71484375 415.81054688 415.81054688 0 0 1-7.64648438-60.1171875 166.11328125 166.11328125 0 0 1 1.84570313-31.11328125 37.17773438 37.17773438 0 0 1 3.95507812-13.44726563l5.80078125-11.60156249a47.4609375 47.4609375 0 0 1 12.12890625-10.28320313 42.45117188 42.45117188 0 0 1 15.55664063-3.95507813 45.08789063 45.08789063 0 0 1 15.55664062 1.84570313 56.68945313 56.68945313 0 0 1 21.35742188 11.86523438 23.99414063 23.99414063 0 0 1 5.80078125 7.64648437 11.86523438 11.86523438 0 0 1 1.84570312 7.64648438 26.3671875 26.3671875 0 0 1 2.109375 13.71093749c0 3.95507813-2.109375 9.75585938-2.109375 13.71093751s-3.69140625 9.4921875-5.80078125 13.44726562-5.80078125 9.75585938-7.64648437 13.7109375c-5.80078125 9.4921875-13.7109375 19.24804688-19.51171875 26.3671875a213.57421875 213.57421875 0 0 1-21.35742188 23.203125 362.28515625 362.28515625 0 0 0 23.46679688 69.87304688 258.13476563 258.13476563 0 0 1 56.16210937 31.11328124 69.08203125 69.08203125 0 0 1 21.35742188 19.24804688 29.26757813 29.26757813 0 0 0 7.91015625 9.75585937c1.84570313 3.95507813 1.84570313 5.80078125 3.69140625 9.75585938v13.7109375c-1.84570313 3.69140625-3.69140625 9.4921875-7.64648438 11.6015625s-5.80078125 3.69140625-9.75585937 5.80078125a39.28710938 39.28710938 0 0 1-17.40234375 3.95507812z m-26.3671875-62.2265625c7.64648438 15.55664063 13.7109375 21.35742188 17.40234375 21.35742188s2.109375 0 2.109375-1.84570313 1.84570313-2.109375 1.84570313-3.95507813a198.01757813 198.01757813 0 0 0-21.35742188-15.55664062z m-195.1171875-60.1171875a26.3671875 26.3671875 0 0 0-11.6015625 1.84570313c-1.84570313 0-1.84570313 1.84570313-3.69140625 1.84570312a2.63671875 2.63671875 0 0 0 0 3.95507813c0 3.95507813 3.69140625 5.80078125 7.64648438 5.80078124a55.10742188 55.10742188 0 0 0 29.00390624-11.60156249 89.91210938 89.91210938 0 0 0-21.35742187-1.84570313z m120.49804688-26.3671875c-3.95507813 3.95507813-9.75585938 7.91015625-13.71093751 11.6015625 5.80078125 2.109375 13.7109375 3.95507813 19.51171875 5.80078125z m31.11328124-118.38867188a7.11914063 7.11914063 0 0 0-5.80078125 1.84570313 22.41210938 22.41210938 0 0 0-3.95507812 13.7109375 116.54296875 116.54296875 0 0 0 1.84570312 23.203125 62.2265625 62.2265625 0 0 0 13.7109375-19.24804687 52.734375 52.734375 0 0 0 3.95507813-13.7109375c0-1.84570313 0-3.95507813-7.91015625-5.80078125z" fill="#FFFFFF" p-id="8137"></path></svg>