<svg t="1704770813545" class="icon" viewBox="0 0 1024 1024" version="1.1" xmlns="http://www.w3.org/2000/svg" p-id="46793" width="128" height="128"><path d="M492.055487 0.401833C227.17968 10.500911 13.899161 221.881604 0.700366 485.957484c-15.498584 309.07177 228.179159 552.749513 537.35092 537.350919 264.07588-13.198794 475.456573-226.479314 485.55565-491.35512C1035.105886 229.780882 794.127896-11.197107 492.055487 0.401833z m268.575469 495.85471C735.933211 526.953739 449.75935 817.62719 443.459925 825.126505c-2.099808 2.499772-4.899552 5.299516-7.899278 6.699388-6.199434 2.899735-12.998813 1.699845-12.998813-6.699388 0-7.799288 32.996986-141.88704 58.194685-243.477762 0.299973-1.0999-0.599945-2.199799-1.699845-2.199799H316.971479c-10.998995 0-19.798192-8.799196-19.998174-19.6982 0-0.199982 0-0.399963 0.099991-0.499955 2.699753-9.299151 76.892977-265.175779 79.892703-275.67482 3.099717-10.699023 8.999178-19.998173 19.998173-19.998174h256.976528c10.899005 0 19.798192 8.699205 19.998174 19.59821 0 0.299973 0 0.499954-0.199982 0.799927L600.945541 451.460635c-0.499954 1.19989 0.299973 2.499772 1.599854 2.499771h149.786319c7.399324 0 32.896995 11.698931 8.299242 42.296137z" fill="#1A7BCC" p-id="46794"></path></svg>