<svg t="1705286174280" class="icon" viewBox="0 0 1024 1024" version="1.1" xmlns="http://www.w3.org/2000/svg" p-id="5237" width="128" height="128"><path d="M512 0c282.766222 0 512 229.233778 512 512s-229.233778 512-512 512S0 794.766222 0 512 229.233778 0 512 0zM264.192 544.995556a5.688889 5.688889 0 0 0-7.224889 3.555555l-26.737778 78.990222a5.688889 5.688889 0 0 0 6.883556 7.310223l35.043555-9.386667a270.336 270.336 0 0 0 506.851556-56.149333 14.222222 14.222222 0 0 0-10.666667-17.066667l-2.56-0.341333-2.474666 0.113777a14.222222 14.222222 0 0 0-12.003556 10.894223 241.863111 241.863111 0 0 1-451.128889 55.068444l26.311111-7.082667a5.688889 5.688889 0 0 0 2.275556-9.756444l-62.634667-55.04a5.688889 5.688889 0 0 0-1.934222-1.137778zM515.697778 238.023111c-139.576889 0-255.829333 106.268444-268.970667 244.280889a14.222222 14.222222 0 1 0 28.302222 2.702222 241.806222 241.806222 0 0 1 465.891556-64.967111l-36.352 9.728a5.688889 5.688889 0 0 0-2.275556 9.756445l62.634667 55.04a5.688889 5.688889 0 0 0 9.130667-2.446223l26.737777-78.990222a5.688889 5.688889 0 0 0-6.883555-7.310222l-25.372445 6.798222a270.392889 270.392889 0 0 0-252.842666-174.592z" fill="#206AFF" p-id="5238"></path></svg>