<svg t="1749868425361" class="icon" viewBox="0 0 1024 1024" version="1.1" xmlns="http://www.w3.org/2000/svg" p-id="4329" width="1024" height="1024"><path d="M718.489072 363.678351a256.844536 256.844536 0 1 1-256.844536-256.844537 256.844536 256.844536 0 0 1 256.844536 256.844537z" fill="#FFD800" p-id="4330"></path><path d="M554.754639 515.800412a8.445361 8.445361 0 0 1-6.33402-2.850309L389.225567 343.198351a8.762062 8.762062 0 0 1 0-12.351341 8.656495 8.656495 0 0 1 12.35134 0l159.61732 170.174021a8.867629 8.867629 0 0 1-6.439588 14.779381zM554.860206 612.28866a9.18433 9.18433 0 0 1-6.439587-2.744742l-2.955877-3.167011a8.762062 8.762062 0 0 1 12.773609-12.034639l2.955876 3.16701a8.867629 8.867629 0 0 1-6.334021 14.779382z m-42.226804-44.654846a8.762062 8.762062 0 0 1-6.334021-2.744742l-2.955876-3.16701a8.762062 8.762062 0 0 1 12.668041-12.034639l3.061444 3.272577a8.656495 8.656495 0 0 1 0 12.245773 8.234227 8.234227 0 0 1-6.122887 2.428041z m-42.226804-44.654845a8.762062 8.762062 0 0 1-6.334021-2.744742l-3.061443-3.167011a8.762062 8.762062 0 0 1 0-12.35134 8.656495 8.656495 0 0 1 12.35134 0l2.955877 3.272578a8.656495 8.656495 0 0 1 0 12.35134 8.762062 8.762062 0 0 1-5.172784 2.639175z" fill="" p-id="4331"></path><path d="M468.189691 519.811959a9.18433 9.18433 0 0 1-6.439588-2.744743l-158.350515-169.540618a8.656495 8.656495 0 0 1 0-12.35134 8.762062 8.762062 0 0 1 12.35134 0L475.051546 505.032577a8.867629 8.867629 0 0 1-6.33402 14.779382z" fill="" p-id="4332"></path><path d="M854.248247 699.803711a8.762062 8.762062 0 0 1-8.762061-8.762062V307.411134a4.117113 4.117113 0 0 0-4.011547-4.117113H216.940206a4.117113 4.117113 0 0 0-4.011546 4.117113v383.630515a8.762062 8.762062 0 0 1-17.524124 0V307.411134a21.113402 21.113402 0 0 1 21.113402-21.113402h624.956701a21.113402 21.113402 0 0 1 21.113402 21.113402v383.630515a8.762062 8.762062 0 0 1-8.339794 8.762062z" fill="" p-id="4333"></path><path d="M811.599175 699.803711H246.710103a8.762062 8.762062 0 0 1-8.656495-8.762062V337.181031a8.762062 8.762062 0 0 1 8.656495-8.762062h564.889072a8.762062 8.762062 0 0 1 8.762062 8.762062v353.860618a8.762062 8.762062 0 0 1-8.762062 8.762062zM255.472165 682.279588h547.364948V345.943093H255.472165z" fill="" p-id="4334"></path><path d="M529.207423 329.052371A12.35134 12.35134 0 1 1 541.453196 316.701031a12.35134 12.35134 0 0 1-12.245773 12.35134z m0-17.524124a5.172784 5.172784 0 0 0-5.172784 5.172784 5.172784 5.172784 0 1 0 10.556701 0 5.172784 5.172784 0 0 0-5.383917-5.172784zM869.555464 751.214845H188.859381a24.491546 24.491546 0 0 1-23.541443-19.952165l-4.328247-26.180618a19.318763 19.318763 0 0 1 19.318763-22.802474h697.797938A19.318763 19.318763 0 0 1 897.319588 705.082062l-4.433815 26.180618a24.280412 24.280412 0 0 1-23.330309 19.952165z m-689.24701-51.411134a2.11134 2.11134 0 0 0-1.689073 0.633402 1.794639 1.794639 0 0 0 0 1.79464L182.630928 728.412371a6.861856 6.861856 0 0 0 6.228453 5.278351h680.696083A6.861856 6.861856 0 0 0 876.206186 728.412371l4.328247-26.180618a2.428041 2.428041 0 0 0 0-1.79464 2.11134 2.11134 0 0 0-1.689072-0.633402zM630.762887 829.862268H372.334845a8.762062 8.762062 0 1 1 0-17.524124h258.428042a8.762062 8.762062 0 0 1 0 17.524124zM308.150103 829.862268h-4.433814a8.762062 8.762062 0 1 1 0-17.524124h4.433814a8.762062 8.762062 0 0 1 0 17.524124z m-61.228866 0H242.804124A8.762062 8.762062 0 0 1 242.804124 812.865979h4.328247a8.762062 8.762062 0 1 1 0 17.524124zM827.539794 829.862268H823.42268A8.762062 8.762062 0 0 1 823.42268 812.865979h4.433815a8.762062 8.762062 0 0 1 0 17.524124z m-61.228866 0h-4.328248a8.762062 8.762062 0 1 1 0-17.524124h4.328248a8.762062 8.762062 0 0 1 0 17.524124z m-61.228866 0h-4.328248a8.762062 8.762062 0 0 1 0-17.524124h4.328248a8.762062 8.762062 0 1 1 0 17.524124z" fill="" p-id="4335"></path></svg>