<svg t="1704770976636" class="icon" viewBox="0 0 1024 1024" version="1.1" xmlns="http://www.w3.org/2000/svg" p-id="55908" width="128" height="128"><path d="M938.67 549.77c-9.96 49.68-24.18 94.38-42.87 133.87-63.89 134.77-173 205.55-327.42 212.05-73.24 3-142.32-6.9-207.54-29.59v-0.9l-28.85 70.09c-5.58 9.7-11.78 16.19-18.59 19.69-6.81 3.7-13.21 5.2-19 5-5.79-0.3-11.79-1.8-17.78-4.4-5.79-2.7-9.96-4.7-12.09-6.3-2.13-1.6-3.96-2.9-5.08-4L113.27 705.34c-3.66-6.5-5.79-12.8-6.5-18.9-0.71-6-0.3-11.1 1.02-15.29 1.32-4.2 3.45-8.1 6.5-11.7 2.84-3.29 5.99-6.3 9.34-9 3.15-2.5 6.5-4.4 10.26-6.3 3.66-1.8 6.2-2.9 7.42-3.1 1.32-0.3 2.14-0.7 2.85-1.3l254.88-65.49c13.62-3 24.38-3.8 32.51-2.2 8.12 1.6 14.73 3.4 20.01 5.3 5.28 2.1 9.04 5.6 11.18 10.8 2.13 5.1 3.56 9.4 4.27 13.1 0.71 3.7 0.71 7.8 0 12.5s-1.32 8-1.83 9.4c-0.71 1.6-1.02 2.5-1.02 3.1l-29.77 70.09c52.83 18.69 102.51 30.09 149.33 34.59 46.83 4.4 86.76 3.4 119.47-3.1 32.81-6.5 63.49-17.4 91.74-32.4 28.24-15 50.49-29.89 67.05-44.49a306.953 306.953 0 0 0 44.19-48.59c13.11-17.7 21.13-29.89 24.69-36.39 3.23-6.6 5.98-12 7.81-16.2zM85.33 457.99c13.61-58.69 32.81-110.27 57.6-154.66 71.42-123.98 184.49-184.46 339.61-181.46 68.87 1.2 131.45 12.8 187.94 35.1l30.68-69.18c4.36-6.5 9.04-11.9 13.92-15.8 4.98-3.9 9.65-6.3 13.91-7.2 4.37-0.9 8.94-0.99 13.51-0.4 4.67 0.7 8.63 1.6 12.09 3.1 3.46 1.6 6.8 3.4 10.26 5.4 3.35 2.1 5.38 3.4 6.1 4l2.84 2.7 140.5 242.85c3.15 7.2 4.98 13.7 5.58 19.79 0.71 6 0.31 11.1-1.02 15.3-1.32 4.2-3.55 8.1-6.9 11.59-3.46 3.7-6.71 6.5-9.75 8.5a80.2 80.2 0 0 1-10.26 5.9l-7.42 3.7c-1.32 0.7-2.13 0.9-2.84 0.9L624.86 447.5c-17.47 2.5-31.39 2.1-41.85-0.9-10.47-3-17.48-7-20.42-12.1-3.15-5.1-4.67-11.19-4.67-18.39 0-7.2 0.3-12.3 1.02-15.3 0.71-3 1.52-5.4 2.84-7.2l31.7-69.18c-52.11-19.7-101.59-32.4-148.93-37.69-47.13-5.4-86.96-5.4-119.46 0-32.51 5.3-63.29 15.29-92.14 29.59-28.85 14.4-51.71 28.7-68.37 43.19a351.869 351.869 0 0 0-45.61 47.59C105.36 424.5 96.72 436.5 92.86 443c-3.67 6.39-6.21 11.49-7.53 14.99z" fill="#196BFA" p-id="55909"></path></svg>